<?xml version="1.0" encoding="utf-8"?>
<!-- Generator: Adobe Illustrator 27.1.1, SVG Export Plug-In . SVG Version: 6.00 Build 0)  -->
<svg version="1.1" id="Layer_1" xmlns="http://www.w3.org/2000/svg" xmlns:xlink="http://www.w3.org/1999/xlink" x="0px" y="0px"
	 viewBox="0 0 72 72" style="enable-background:new 0 0 72 72;" xml:space="preserve">
<style type="text/css">
	.st0{fill:#FFFFFF;}
</style>
<path class="st0" d="M27.4,23c7.5,15.9,11.2,25.1,11.2,27.3c0,7.8-5.9,7.9-8.6,7.9c-7.9,0-13.1-6.3-15.3-9.2H17
	c2.8,2.8,6.2,5.4,10.3,5.4c5,0,5.6-3,5.6-4.1c0-4.1-2.9-13.2-8.5-27.1L20,23.5c-6.9,0-10-5-12.4-9.6h2.6c3.1,2.9,6.3,4.3,9.8,4.3
	c3,0,6-0.2,8.9-0.6c5.3-0.8,10.7-1.2,16.1-1.2c13.5,0,16.7,5.2,19.6,12h-2.6c-2.8-4.8-5.3-6.8-17-6.8c-1.1,0.6-1.6,0.8-1.6,2.2
	c0,4.8,8.5,18.2,14.3,24.2c3.4,3.5,5.2,5.8,5.2,6.8c0,2.1-1.4,3.4-2.5,3.4c-0.9,0-1.7-0.4-2.3-0.9l-2-2.5
	c-8.7-13.1-14-23.4-15.8-30.9c-0.1-0.6-0.8-1.2-2.1-1.7L27.4,23z"/>
</svg>
