<svg id="Layer_1" data-name="Layer 1" xmlns="http://www.w3.org/2000/svg" viewBox="0 0 72 72"><defs><style>.cls-1{fill:#231f20;}</style></defs><path class="cls-1" d="M27.43,23c7.5,15.94,11.21,25.11,11.21,27.33,0,7.79-5.93,7.88-8.62,7.88-7.87,0-13.06-6.3-15.28-9.17H17c2.78,2.78,6.21,5.37,10.28,5.37,5,0,5.56-3,5.56-4.08,0-4.07-2.87-13.15-8.52-27.14l-4.36.28c-6.85,0-10-5-12.41-9.64H10.1c3.06,2.87,6.3,4.35,9.82,4.35a63.21,63.21,0,0,0,8.9-.64,101.6,101.6,0,0,1,16.12-1.21c13.53,0,16.68,5.19,19.55,12.05H61.9c-2.78-4.82-5.28-6.77-17-6.77-1.11.65-1.57.84-1.57,2.23C43.37,28.63,51.8,42,57.63,48c3.43,3.52,5.19,5.84,5.19,6.76,0,2.13-1.39,3.43-2.5,3.43A3.57,3.57,0,0,1,58,57.26l-2-2.5C47.26,41.7,42,31.32,40.22,23.82c-.1-.56-.84-1.21-2.14-1.67Z"/></svg>