<?xml version="1.0" standalone="no"?>
<!DOCTYPE svg PUBLIC "-//W3C//DTD SVG 20010904//EN"
 "http://www.w3.org/TR/2001/REC-SVG-20010904/DTD/svg10.dtd">
<svg version="1.0" xmlns="http://www.w3.org/2000/svg"
 width="700.000000pt" height="700.000000pt" viewBox="0 0 700.000000 700.000000"
 preserveAspectRatio="xMidYMid meet">
<metadata>
Created by potrace 1.14, written by Peter Selinger 2001-2017
</metadata>
<g transform="translate(0.000000,700.000000) scale(0.100000,-0.100000)"
fill="#000000" stroke="none">
<path d="M740 5649 c0 -10 50 -101 126 -230 243 -410 535 -636 889 -687 90
-13 534 -3 578 14 7 2 17 0 24 -4 21 -13 299 -727 455 -1167 102 -288 218
-649 268 -835 53 -198 81 -328 101 -480 16 -119 7 -243 -21 -303 -78 -166
-261 -250 -525 -243 -151 5 -184 11 -330 64 -190 68 -382 197 -590 394 l-60
58 -108 0 c-90 0 -107 -2 -100 -14 23 -40 185 -224 280 -318 299 -297 596
-467 933 -533 135 -27 424 -28 550 -2 238 50 399 169 477 355 68 162 88 418
42 540 -6 15 -10 28 -9 30 5 14 -104 322 -188 532 -88 220 -309 737 -387 905
-21 44 -54 118 -75 165 -21 47 -53 119 -73 160 -19 41 -51 113 -72 160 -21 47
-69 150 -107 229 -37 79 -68 145 -68 147 0 2 -18 40 -40 86 -22 45 -37 85 -33
89 5 3 51 9 103 13 156 11 352 26 528 41 31 3 89 7 127 10 39 3 97 8 130 11
129 12 138 11 204 -20 109 -51 127 -77 171 -246 23 -89 68 -227 116 -359 36
-99 44 -118 62 -161 6 -14 36 -86 67 -160 56 -133 273 -579 357 -735 135 -247
273 -485 422 -728 50 -82 100 -163 111 -181 116 -191 353 -547 423 -636 145
-184 162 -201 226 -230 123 -57 199 -47 282 35 97 96 127 248 70 351 -58 107
-217 300 -416 508 -47 49 -94 98 -105 110 -11 12 -49 55 -85 96 -36 41 -67 77
-70 80 -66 66 -346 443 -496 670 -433 651 -686 1185 -688 1450 0 113 13 136
111 195 l43 26 202 -6 c112 -3 230 -8 263 -10 113 -10 269 -26 274 -29 3 -2
29 -7 56 -10 86 -11 246 -57 338 -96 196 -84 336 -215 480 -449 l37 -61 125 0
125 0 -10 24 c-19 50 -105 234 -143 306 -292 550 -701 780 -1482 835 -69 5
-590 5 -680 1 -33 -2 -127 -7 -209 -11 -82 -4 -157 -8 -166 -10 -10 -2 -62 -7
-116 -10 -55 -4 -106 -9 -114 -10 -8 -2 -51 -6 -95 -11 -44 -4 -82 -8 -85 -9
-3 -1 -34 -5 -70 -9 -36 -4 -76 -9 -90 -11 -14 -2 -43 -6 -65 -9 -22 -3 -89
-13 -150 -22 -60 -9 -123 -17 -140 -19 -288 -30 -433 -39 -650 -39 -188 0
-255 6 -362 35 -201 53 -382 149 -559 296 -38 32 -78 65 -88 73 -14 11 -49 15
-137 15 -66 1 -119 -2 -119 -6z"/>
</g>
</svg>
